<?xml version="1.0" standalone="no"?>
<!DOCTYPE svg PUBLIC "-//W3C//DTD SVG 1.1//EN" "http://www.w3.org/Graphics/SVG/1.1/DTD/svg11.dtd" >
<svg xmlns="http://www.w3.org/2000/svg">
<metadata>Generated by IcoMoon</metadata>
<defs>
<font id="icomoon" horiz-adv-x="1024">
<font-face units-per-em="1024" ascent="960" descent="-64" />
<missing-glyph horiz-adv-x="1024" />
<glyph unicode="&#x20;" horiz-adv-x="512" d="" />
<glyph unicode="&#xe900;" glyph-name="-2" d="M707.584 866.816c-77.312 0-148.992-38.912-196.608-102.912-47.104 64-119.296 102.912-196.608 102.912-139.264 0-252.416-123.904-252.416-275.968 0-90.624 40.448-154.624 73.216-205.824 94.72-148.992 333.312-333.824 343.552-341.504 9.728-7.68 20.992-11.264 32.256-11.264s22.528 3.584 32.256 11.264c10.24 7.68 248.32 193.024 343.552 341.504 32.768 51.2 73.216 115.2 73.216 205.824 0 152.064-113.152 275.968-252.416 275.968z" />
<glyph unicode="&#xe901;" glyph-name="-11" d="M752.961 17.577c-9.691 0-20.996 3.23-30.686 8.075l-209.966 104.981-211.576-104.981c-20.996-11.304-48.453-9.69-67.834 4.846-19.38 14.544-30.687 40.387-25.842 64.602l43.607 226.111-166.352 155.055c-17.766 17.771-24.226 45.222-17.766 67.834 8.076 24.229 27.456 41.992 53.298 45.222l230.956 41.992 103.365 209.96c11.311 22.611 33.922 37.149 58.143 37.149 24.227 0 48.458-14.538 58.148-37.149l103.365-209.96 230.956-40.38c24.226-3.231 45.222-20.999 51.682-45.225 8.076-24.226 1.616-50.067-16.15-67.834l-166.354-156.665 41.991-226.111c4.845-25.841-6.46-50.068-25.842-64.602-9.69-8.077-22.61-12.921-37.147-12.921z" />
<glyph unicode="&#xe902;" glyph-name="8" horiz-adv-x="1174" d="M242.075 729.070v-600.695h648.406v283.899c0 5.573-0.74 11.317 0.313 16.69 3.412 17.486 12.852 29.172 32.186 28.604 18.965-0.54 30.224-11.031 30.31-29.798 0.426-110.745 0.34-221.518 0.113-332.263-0.029-18.85-10.975-29.058-29.314-31.248-6.313-0.739-12.738-0.511-19.107-0.511-225.499-0.029-450.998-0.029-676.497 0-42.933 0-49.927 7.079-49.927 49.87 0 209.549-0.029 419.125 0 628.674 0 40.886 7.99 48.875 48.875 48.903 109.95 0.028 219.926-0.057 329.875 0.085 17.202 0.028 33.409-3.44 37.645-21.978 2.133-9.298-0.057-24.396-6.34-29.627-8.587-7.165-22.917-10.094-34.802-10.18-94.823-0.767-189.645-0.426-284.468-0.426h-27.267zM880.729 770.212c-43.644 0-80.663-0.113-117.654 0.086-9.525 0.057-19.277-0.057-28.461 2.018-16.69 3.782-25.532 17.060-20.784 31.987 3.326 10.519 15.183 24.083 24.935 25.646 24.111 3.867 49.189 1.735 73.897 1.763 48.59 0.085 97.21 0.313 145.802-0.114 28.006-0.256 36.934-9.525 37.020-37.73 0.227-68.522 0.227-137.045-0.030-205.567-0.085-23.77-11.571-37.049-30.849-37.105-19.561-0.085-30.764 12.88-30.877 36.793-0.228 46.090-0.057 92.178-0.057 143.585-28.035-24.481-52.913-45.92-77.45-67.699-117.257-104.121-234.428-208.354-351.627-312.53-19.22-17.089-39.635-18.254-52.43-3.1-12.169 14.416-8.5 32.755 10.435 49.558 128.004 113.645 256.064 227.205 384.068 340.822 9.78 8.757 19.277 17.884 34.062 31.588z" />
<glyph unicode="&#xe903;" glyph-name="7" d="M910.085 704.65c-0.922-37.56-33.679-64.527-62.776-83.226-49.065-31.529-107.008-48.108-163.553-60.012-138.173-29.097-290.765-23.572-425.431 19.466-58.358 18.652-189.148 75.151-141.824 157.706 21.996 38.369 69.443 61.798 108.636 77.824 61.010 24.94 127.155 37.652 192.492 44.083 113.51 11.172 231.465 2.744 340.388-32.072 53.443-17.080 150.38-55.009 152.069-123.771 0.809-32.957 52.009-33.039 51.2 0-2.376 96.732-111.273 147.016-189.655 173.143-133.315 44.436-282.629 47.114-420.352 25.395-97.096-15.309-223.186-49.464-278.989-138.762-50.437-80.712 17.992-157.66 86.298-196.291 68.029-38.472 147.732-56.832 224.573-66.637 93.834-11.976 188.503-10.117 281.912 4.613 73.81 11.638 149.601 33.516 212.931 74.22 43.587 28.012 81.956 70.042 83.287 124.319 0.804 33.039-50.396 32.957-51.205 0zM910.085 536.771c-1.434-56.796-74.506-91.822-118.881-110.013-89.001-36.521-187.52-48.358-283.028-48.809-95.913-0.456-193.505 13.507-283.039 48.809-44.457 17.521-117.453 53.668-118.881 110.013-0.835 32.957-52.035 33.039-51.2 0 1.869-73.866 71.378-120.975 131.85-148.91 99.384-45.911 212.751-60.6 321.27-61.117 109.087-0.517 221.138 16.655 321.26 61.117 60.657 26.936 130.002 75.75 131.85 148.91 0.835 33.039-50.365 32.952-51.2 0zM910.085 365.373c-1.434-56.801-74.506-91.827-118.881-110.029-89.001-36.521-187.52-48.358-283.028-48.809-95.913-0.456-193.505 13.507-283.039 48.809-44.457 17.531-117.453 53.678-118.881 110.029-0.835 32.957-52.035 33.034-51.2 0 1.869-73.871 71.378-120.986 131.85-148.925 99.384-45.911 212.751-60.6 321.27-61.117 109.087-0.517 221.138 16.655 321.26 61.117 60.657 26.936 130.002 75.766 131.85 148.925 0.835 33.034-50.365 32.957-51.2 0zM910.085 183.931c-1.434-56.801-74.506-91.827-118.881-110.029-89.001-36.521-187.52-48.358-283.028-48.809-95.913-0.456-193.505 13.507-283.039 48.809-44.457 17.531-117.453 53.678-118.881 110.029-0.835 32.957-52.035 33.034-51.2 0 1.869-73.871 71.378-120.986 131.85-148.92 99.384-45.916 212.751-60.605 321.27-61.123 109.087-0.517 221.138 16.655 321.26 61.123 60.657 26.931 130.002 75.761 131.85 148.92 0.835 33.034-50.365 32.952-51.2 0zM386.237 808.31l102.2-102.195c9.866-9.861 26.342-9.861 36.204 0l103.496 103.491c23.368 23.363-12.836 59.571-36.198 36.204l-103.501-103.491h36.204l-102.2 102.195c-23.368 23.368-59.566-12.836-36.204-36.204zM388.992 698.614h235.453c33.014 0 33.014 51.2 0 51.2h-235.453c-33.019 0-33.019-51.2 0-51.2zM388.992 624.594h235.453c33.014 0 33.014 51.2 0 51.2h-235.453c-33.019 0-33.019-51.2 0-51.2zM481.116 725.509v-141.010c0-33.019 51.205-33.019 51.205 0v141.010c0 33.014-51.205 33.014-51.205 0z" />
<glyph unicode="&#xe904;" glyph-name="_weight9" horiz-adv-x="1026" d="M966.592 503.776h-3.52v30.016c0 28.64-23.232 51.872-51.872 51.872h-14.944v41.76c0 28.64-23.264 51.872-51.872 51.872h-86.816c-28.64 0-51.84-23.232-51.84-51.872v-123.648h-387.744v123.648c0 28.64-23.264 51.872-51.872 51.872h-86.816c-28.608 0-51.84-23.232-51.84-51.872v-41.76h-15.040c-28.608 0-51.84-23.232-51.84-51.872v-30.016h-6.816c-29.632 0-53.76-23.808-53.76-53.504 0-29.664 24.128-53.472 53.76-53.472h6.816v-30.016c0-28.64 23.232-51.872 51.84-51.872h15.040v-41.728c0-28.64 23.232-51.872 51.84-51.872h86.816c28.608 0 51.872 23.232 51.872 51.872v123.616h387.744v-123.616c0-28.64 23.2-51.872 51.84-51.872h86.816c28.64 0 51.872 23.232 51.872 51.872v41.728h14.944c28.64 0 51.872 23.232 51.872 51.872v30.016h3.488c29.696 0 53.792 23.808 53.792 53.472 0.032 29.696-24.064 53.504-53.76 53.504z" />
<glyph unicode="&#xe905;" glyph-name="19" horiz-adv-x="1066" d="M707.918 556.75c-53.85-93.525-103.575-180.375-318.038-152.775-49.313 7.087-42.637-46.762-30-71.775 9.112-16.725 24.975-36.788 55.012-55.125-54.263-17.1-189.488-49.687-235.463 0-44.213 76.8-32.475 184.088-3.262 265.125 13.313-24.75 30.825-48.863 46.763-72.675 6.207-9.654 16.894-15.959 29.053-15.959 7.197 0 13.878 2.209 19.403 5.985l-0.118-0.076c13.387 8.363 18.375 23.812 15.075 38.775-15.075 53.062-1.688 111.525 27.563 162.413 17.474 29.478 37.781 54.858 61.128 77.073l0.147 0.139c-16.238-66.75-18.713-117.75-18.712-118.013 0.061-19.431 15.669-35.197 35.033-35.512h0.030c0.076-0.001 0.167-0.001 0.257-0.001 15.636 0 28.885 10.224 33.424 24.352l0.069 0.248c56.4 125.55 377.775 333.038 489.225 149.363-116.438-43.8-162.375-124.8-206.625-201.563zM639.518 871c-67.2-25.5-132.75-66.337-184.95-113.063 5.438 15.037 10.875 31.275 17.925 46.725 2.094 4.256 3.318 9.265 3.318 14.559 0 4.509-0.888 8.811-2.499 12.74l0.081-0.224c-5.009 13.266-17.601 22.53-32.357 22.53-4.58 0-8.951-0.892-12.949-2.513l0.231 0.083c-70.125-27.187-135.263-85.65-175.725-156.525-12.243-21.144-22.879-45.609-30.634-71.324l-0.641-2.476c-1.8 6.188-3.45 11.1-5.137 18.3v-0.375c-1.976 8.923-7.239 16.365-14.425 21.147l-0.125 0.078c-5.511 3.864-12.357 6.175-19.743 6.175-12.134 0-22.812-6.237-29.001-15.681l-0.081-0.132c-75.15-111.825-104.4-290.962-32.663-411.15-11.588-17.1-105.975-226.575-26.625-226.575h710.85c19.354 0 35.044 15.69 35.044 35.044s-15.69 35.044-35.044 35.044h-668.363c-2.063 24.6 24.225 92.7 40.162 114.375 100.2-39.675 255.375-4.125 344.738 45.975 8.363 4.5 14.137 12.487 17.512 20.85 5.888 18.3-5.025 38.288-23.325 44.625-21.243 6.482-38.551 12.991-55.368 20.409l3.168-1.247c193.237-3.75 247.5 91.95 305.925 193.313 41.737 72.637 86.025 150.225 204.075 181.125l3.413 0.75c13.719 5.731 23.185 19.040 23.185 34.56 0 4.231-0.704 8.299-2 12.091l0.078-0.263c-60.113 158.25-218.7 173.25-358.087 121.088z" />
<glyph unicode="&#xe906;" glyph-name="18" horiz-adv-x="1026" d="M390.091 960h-292.568c-53.637 0-97.523-43.886-97.523-97.523v-292.568c0-53.637 43.886-97.523 97.523-97.523h292.568c53.637 0 97.523 43.886 97.523 97.523v292.568c0 53.637-43.886 97.523-97.523 97.523zM438.852 569.909c0-26.82-21.943-48.761-48.761-48.761h-292.568c-26.82 0-48.761 21.943-48.761 48.761v292.568c0 26.82 21.943 48.761 48.761 48.761h292.568c26.82 0 48.761-21.943 48.761-48.761v-292.568zM926.466 960h-292.568c-53.637 0-97.523-43.886-97.523-97.523v-292.568c0-53.637 43.886-97.523 97.523-97.523h292.568c53.637 0 97.523 43.886 97.523 97.523v292.568c0 53.637-43.886 97.523-97.523 97.523zM975.228 569.909c0-26.82-21.943-48.761-48.761-48.761h-292.568c-26.82 0-48.761 21.943-48.761 48.761v292.568c0 26.82 21.943 48.761 48.761 48.761h292.568c26.82 0 48.761-21.943 48.761-48.761v-292.568zM390.091 423.625h-292.568c-53.637 0-97.523-43.886-97.523-97.523v-292.568c0-53.637 43.886-97.523 97.523-97.523h292.568c53.637 0 97.523 43.886 97.523 97.523v292.568c0 53.637-43.886 97.523-97.523 97.523zM438.852 33.534c0-26.82-21.943-48.761-48.761-48.761h-292.568c-26.82 0-48.761 21.943-48.761 48.761v292.568c0 26.82 21.943 48.761 48.761 48.761h292.568c26.82 0 48.761-21.943 48.761-48.761v-292.568zM926.466 423.625h-292.568c-53.637 0-97.523-43.886-97.523-97.523v-292.568c0-53.637 43.886-97.523 97.523-97.523h292.568c53.637 0 97.523 43.886 97.523 97.523v292.568c0 53.637-43.886 97.523-97.523 97.523zM975.228 33.534c0-26.82-21.943-48.761-48.761-48.761h-292.568c-26.82 0-48.761 21.943-48.761 48.761v292.568c0 26.82 21.943 48.761 48.761 48.761h292.568c26.82 0 48.761-21.943 48.761-48.761v-292.568z" />
<glyph unicode="&#xe907;" glyph-name="--2" d="M512 896c-247.68 0-448-200.32-448-448s200.32-448 448-448 448 200.32 448 448-200.32 448-448 448zM756.48 585.6l-260.48-256c-12.8-12.8-33.28-12.8-46.080 0l-121.6 119.040c-12.8 12.8-12.8 33.28 0 45.44 12.8 12.8 33.28 12.8 46.080 0l98.56-96 237.44 233.6c12.8 12.8 33.28 12.8 46.080 0s12.8-33.28 0-46.080z" />
<glyph unicode="&#xe908;" glyph-name="4" d="M548.992 456.256l336.448 336.416c5.79 5.79 9.371 13.789 9.371 22.624 0 17.67-14.325 31.995-31.995 31.995-8.835 0-16.834-3.581-22.624-9.371l-336.448-336.416-336.416 336.416c-5.79 5.79-13.789 9.371-22.624 9.371-17.67 0-31.995-14.325-31.995-31.995 0-8.835 3.581-16.834 9.371-22.624v0l336.416-336.416-336.416-336.416c-5.79-5.79-9.371-13.789-9.371-22.624 0-17.67 14.325-31.995 31.995-31.995 8.835 0 16.834 3.581 22.624 9.371l336.416 336.416 336.416-336.448c5.79-5.79 13.789-9.371 22.624-9.371 17.67 0 31.995 14.325 31.995 31.995 0 8.835-3.581 16.834-9.371 22.624v0l-336.416 336.448z" />
<glyph unicode="&#xe909;" glyph-name="3" d="M1020.221 700.977l0.057 0.015-507.61 252.783-507.639-252.301v-505.962l507.64-252.79 507.61 252.79v505.465h-0.058zM512.669 892.558l381.637-190.562-145.209-72.977-383.658 190.004 147.23 73.535zM298.95 783.149l388.577-186.487-174.857-84.181-381.642 188.511 167.923 82.157zM68.455 637.048l20.27 0.026-20.27 0.697v31.655l412.419-205.343v-442.368l-412.419 205.353v409.98zM956.882 606.21v-379.144l-412.419-205.352v442.368l412.418 205.344v-63.216z" />
<glyph unicode="&#xe90a;" glyph-name="1" d="M960 706.816l-448 192-448-192v-547.392l448-190.72 38.688 16.48h8.192v3.488l401.12 170.72v547.424zM512 543.392l-113.536 48.32 318.944 147.2c0.736 0.352 1.216 0.992 1.92 1.408l127.232-54.528-334.56-142.4zM640.704 774.016l-321.696-148.48-141.568 60.288 334.56 143.36 128.704-55.168zM128 637.312l128-54.496v-198.816c0-17.673 14.327-32 32-32s32 14.327 32 32v0 171.52l0.064 0.032 174.816-74.432v-435.584l-366.88 156.192v435.584zM558.88 58.208v435.584l337.12 143.52v-435.616l-337.12-143.488z" />
<glyph unicode="&#xe90b;" glyph-name="_1" d="M503.467 469.333l174.933-174.933-59.733-59.733-234.667 234.667 234.667 234.667 59.733-59.733-174.933-174.933z" />
<glyph unicode="&#xe90c;" glyph-name="_" d="M729.6 512h-601.6v-85.333h601.6l-132.267-132.267 59.733-59.733 234.667 234.667-230.4 234.667-59.733-59.733 128-132.267z" />
<glyph unicode="&#xe90d;" glyph-name="2" d="M931.2 441.6c0 233.6-188.8 419.2-419.2 419.2-233.6 0-419.2-188.8-419.2-419.2 0-137.6 67.2-259.2 169.6-336l-57.6-51.2c-9.6-9.6-12.8-25.6-3.2-35.2s25.6-12.8 35.2-3.2l70.4 57.6c60.8-35.2 131.2-54.4 208-54.4 80 0 153.6 22.4 214.4 60.8 0 0 0 0 3.2-3.2l73.6-60.8c9.6-9.6 25.6-6.4 35.2 3.2s6.4 25.6-3.2 35.2l-64 54.4c92.8 76.8 156.8 198.4 156.8 332.8zM512 70.4c-204.8 0-371.2 166.4-371.2 371.2s166.4 371.2 371.2 371.2 371.2-166.4 371.2-371.2-166.4-371.2-371.2-371.2zM208 864c-9.6 9.6-25.6 9.6-35.2 0l-118.4-118.4c-9.6-9.6-9.6-25.6 0-35.2s25.6-9.6 35.2 0l118.4 118.4c9.6 9.6 9.6 25.6 0 35.2zM969.6 748.8l-118.4 115.2c-9.6 9.6-25.6 9.6-35.2 0s-9.6-25.6 0-35.2l118.4-115.2c9.6-9.6 25.6-9.6 35.2 0s9.6 25.6 0 35.2zM707.2 659.2l-144-128c0 0 0-3.2-3.2-3.2-12.8 3.2-22.4 6.4-35.2 6.4s-22.4-3.2-32-6.4c0 3.2-3.2 3.2-3.2 6.4l-92.8 83.2c-9.6 9.6-25.6 9.6-35.2-3.2-9.6-9.6-9.6-25.6 3.2-35.2l89.6-80c-16-19.2-28.8-41.6-28.8-70.4 0-54.4 44.8-102.4 102.4-102.4 54.4 0 102.4 44.8 102.4 102.4 0 25.6-9.6 48-25.6 67.2l140.8 124.8c9.6 9.6 9.6 25.6 3.2 35.2-16 9.6-32 9.6-41.6 3.2zM524.8 377.6c-28.8 0-51.2 22.4-51.2 51.2s22.4 51.2 51.2 51.2c28.8 0 51.2-22.4 51.2-51.2 0-25.6-22.4-51.2-51.2-51.2z" />
<glyph unicode="&#xe90e;" glyph-name="17" d="M962.422 410.018c-0.233 3.495-1.165 6.757-3.029 9.554l-2.33 2.33c-0.932 1.398-2.097 2.796-3.495 3.728h-1.864l-218.104 90.411v269.601c-0.233 3.495-1.165 6.757-3.029 9.554l-2.33 2.33c-0.932 1.398-2.097 2.796-3.495 3.728l-208.55 85.75c-4.66 1.864-10.020 1.864-14.913 0l-201.56-83.653c-1.398-1.165-2.563-2.33-3.495-3.728l-2.33-2.563c-3.262-2.796-5.592-6.524-6.524-10.719v-272.397l-219.269-90.877h-2.33c-1.398-0.932-2.33-2.097-3.495-3.495l-2.33-2.33c-1.864-2.796-3.029-6.058-3.029-9.554h-0.699v-289.64c-1.165-8.622 3.728-17.010 11.884-20.272l224.162-94.605c2.33-0.466 4.893-0.466 7.224 0 2.563-0.466 5.359-0.466 7.923 0l201.793 93.906 204.822-92.974c4.893-2.097 10.486-2.097 15.146 0l221.832 94.605c7.224 3.029 11.884 9.787 11.884 17.476v293.834h-0.466zM718.22 491.807l193.87-80.391-193.87-80.391-179.889 79.692 179.889 81.090zM704.705 515.575l-179.423-80.857-2.33 248.396 179.423 75.964 2.33-243.503zM494.291 683.114v-246.066l-177.792 80.857 2.33 240.939 114.411-51.963 61.050-23.768zM509.437 860.44l171.034-73.4-171.034-70.837-170.335 71.769 170.335 72.468zM300.188 491.807l178.724-82.255-178.724-80.158-192.705 80.624 192.705 81.789zM83.016 383.687l199.928-80.857v-259.814l-199.928 81.090v259.581zM316.499 303.297l179.423 76.197v-257.018l-179.423-78.527v259.348zM524.583 379.493l177.093-76.197v-259.348l-177.093 78.527v257.018zM935.858 121.776l-199.928-78.527v257.251l199.928 80.857v-259.581z" />
<glyph unicode="&#xe90f;" glyph-name="5" d="M1008.274 366.272c-3.372 32.724-20.828 54.611-25.3 59.737l-102.732 141.299-38.241 83.381c-0.105 0.229-0.215 0.456-0.33 0.683-24.105 47.319-51.162 50.235-59.123 49.969h-43.089c-10.173 0-18.42-8.247-18.42-18.42s8.247-18.42 18.42-18.42h43.514c0.028 0 0.055 0 0.083 0 1.622-0.398 12.521-3.956 25.623-29.524l38.844-84.696c0.509-1.109 1.127-2.165 1.845-3.153l104.348-143.521c0.476-0.654 0.994-1.276 1.55-1.861 0.137-0.143 13.548-14.832 16.266-38.361v-174.71h-123.425c-5.030 0-9.84-2.057-13.316-5.693s-5.312-8.535-5.085-13.559c0.051-1.131 0.171-2.085 0.261-2.739-0.384-23.546-19.655-42.584-43.288-42.584s-42.906 19.036-43.292 42.578c0.089 0.644 0.208 1.581 0.262 2.688 0.243 5.034-1.587 9.948-5.063 13.596s-8.295 5.713-13.335 5.713h-32.88v548.998c0 0.761-0.047 1.523-0.142 2.279l-0.491 3.944c-1.149 9.22-8.986 16.141-18.277 16.141h-632.731c-16.038 0-29.086-13.048-29.086-29.086v-550.028c0-16.038 13.048-29.086 29.086-29.086h141.023c7.264-36.764 39.755-64.575 78.617-64.575s71.351 27.811 78.615 64.575h195.798c0.326 0 0.599 0.006 0.925 0.023 0.395 0.024 39.746 1.62 63.481-19.268 7.636-6.719 19.276-5.98 25.996 1.659 6.72 7.637 5.978 19.275-1.659 25.996-33.589 29.561-82.888 28.669-89.137 28.428h-212.592c-5.029 0-9.837-2.056-13.312-5.69s-5.313-8.531-5.089-13.554c0.051-1.135 0.171-2.094 0.261-2.749-0.384-23.546-19.655-42.584-43.287-42.584s-42.902 19.035-43.288 42.577c0.089 0.642 0.208 1.576 0.261 2.679 0.247 5.036-1.582 9.952-5.059 13.602s-8.297 5.717-13.339 5.717h-150.463v534.525h607.051v-553.213c0-5.048 2.071-9.874 5.731-13.351s8.609-5.309 13.624-5.045l4.839 0.246h28.333c7.265-36.764 39.757-64.575 78.621-64.575 38.862 0 71.352 27.811 78.617 64.575h113.984c16.040 0 29.091 13.048 29.091 29.086v183.463c-0.002 0.63-0.034 1.26-0.098 1.888zM803.815 537.723c2.549 0 5.139 0.532 7.611 1.656 9.261 4.21 13.355 15.13 9.146 24.391l-26.206 57.65c-4.211 9.261-15.131 13.357-24.392 9.146s-13.355-15.13-9.146-24.391l26.206-57.65c3.087-6.79 9.779-10.802 16.78-10.802z" />
<glyph unicode="&#xe910;" glyph-name="edit" d="M236.352 36.795l-2.865-0.767h463.947c11.308 0 20.466-9.159 20.466-20.466 0-11.297-9.159-20.466-20.466-20.466h-619.213c-0.010 0-0.010 0-0.020 0-0.348 0-0.686 0.010-1.034 0.031-0.143 0-0.276 0.010-0.42 0.031-0.409 0.020-0.829 0.061-1.238 0.123-0.767 0.092-1.525 0.235-2.262 0.43-0.307 0.082-0.624 0.164-0.931 0.256-0.235 0.072-0.481 0.143-0.716 0.225s-0.471 0.174-0.696 0.256c0 0 0 0-0.010 0-0.225 0.092-0.46 0.184-0.686 0.287-0.235 0.092-0.46 0.194-0.686 0.307-0.297 0.143-0.594 0.287-0.89 0.45-0.297 0.153-0.594 0.317-0.88 0.491-0.583 0.338-1.146 0.716-1.678 1.115-0.225 0.164-0.44 0.327-0.655 0.501-1.167 0.931-2.231 1.995-3.162 3.162-0.174 0.215-0.338 0.43-0.501 0.655-0.614 0.819-1.156 1.688-1.637 2.609-0.143 0.276-0.287 0.563-0.42 0.839-0.102 0.225-0.205 0.45-0.307 0.686-0.194 0.46-0.368 0.921-0.532 1.392-0.153 0.471-0.297 0.941-0.43 1.412-0.184 0.737-0.338 1.474-0.45 2.221-0.092 0.634-0.153 1.289-0.194 1.934 0 0.020-0.010 0.031 0 0.051-0.010 0.153-0.010 0.307-0.010 0.46-0.010 0.082-0.010 0.174-0.010 0.266-0.010 0.307 0 0.624 0.010 0.941 0.010 0.225 0.020 0.44 0.031 0.665 0.041 0.665 0.123 1.33 0.225 1.995 0.031 0.225 0.072 0.44 0.123 0.655 0.041 0.225 0.092 0.44 0.143 0.665 0.051 0.215 0.102 0.44 0.164 0.655l0.153 0.563c0.010 0.082 0.041 0.153 0.061 0.225l40.769 152.033c0.941 3.51 2.794 6.692 5.372 9.251l633.427 626.929c8.033 7.951 20.998 7.89 28.949-0.143 7.951-8.043 7.879-20.998-0.153-28.949l-629.487-623.040-30.372-113.208 113.321 30.402 629.569 623.122c8.033 7.951 20.998 7.879 28.949-0.153s7.879-20.988-0.153-28.939l-633.427-626.939c-2.528-2.497-5.659-4.298-9.087-5.219zM921.621 712.022c-0.1-0.080 16.818 16.839 16.818 16.839 38.798 38.798 38.798 101.686 0.041 140.454-38.837 38.808-101.706 38.777-140.485 0 0 0-16.936-16.938-16.839-16.839l140.464-140.454zM57.775 16.226c-0.010-0.317-0.020-0.634-0.010-0.941-0.010 0.092-0.010 0.184-0.010 0.276 0 0.225 0 0.45 0.020 0.665zM58.031 18.887c-0.102-0.665-0.184-1.33-0.225-1.995 0.031 0.675 0.113 1.341 0.225 1.995zM57.98 12.573c-0.102 0.634-0.164 1.279-0.194 1.934 0.041-0.645 0.102-1.3 0.194-1.934zM58.614 21.425c-0.123-0.399-0.235-0.808-0.317-1.218 0.051 0.215 0.102 0.44 0.164 0.655l0.153 0.563z" />
<glyph unicode="&#xe911;" glyph-name="home" d="M1014.613 416.88c-3.97-3.807-9.077-5.7-14.173-5.7-5.372 0-10.745 2.108-14.766 6.293l-64.54 67.241v-523.544c0-11.308-9.159-20.466-20.466-20.466h-265.261c-11.308 0-20.466 9.159-20.466 20.466 0 11.297 9.159 20.466 20.466 20.466h244.795v545.729l-367.234 382.614-367.224-382.594v-545.75h224.329v306.009c0 11.308 9.169 20.466 20.466 20.466h244.867c11.297 0 20.466-9.159 20.466-20.466 0-11.297-9.169-20.466-20.466-20.466h-224.401v-306.009c0-11.308-9.159-20.466-20.466-20.466h-265.261c-11.297 0-20.466 9.159-20.466 20.466v523.564l-64.55-67.252c-7.828-8.156-20.783-8.422-28.939-0.594s-8.422 20.783-0.594 28.939l487.472 507.877c3.858 4.022 9.189 6.293 14.766 6.293 5.567 0 10.898-2.272 14.756-6.293l487.483-507.887c7.828-8.156 7.562-21.111-0.594-28.939z" />
<glyph unicode="&#xe912;" glyph-name="icon_" d="M166.464 511.296l212.64-128.736c9.701-5.619 16.122-15.951 16.122-27.783 0-17.673-14.327-32-32-32-6.416 0-12.39 1.888-17.399 5.139l0.124-0.076-266.528 161.312c-9.321 5.704-15.446 15.83-15.446 27.385 0 13.235 8.035 24.593 19.493 29.463l0.209 0.079 832 347.456c3.636 1.557 7.866 2.462 12.308 2.462 17.673 0 32-14.327 32-32 0-2.116-0.205-4.183-0.597-6.184l0.033 0.202-145.76-768c-2.908-14.923-15.876-26.032-31.439-26.032-6.359 0-12.284 1.855-17.265 5.052l0.127-0.077-270.208 171.328c-9.003 5.765-14.884 15.716-14.884 27.040 0 17.675 14.329 32.004 32.004 32.004 6.351 0 12.27-1.85 17.248-5.041l-0.128 0.077 230.464-146.112 125.856 663.264-718.976-300.224zM416 327.904v-263.904c0-17.673-14.327-32-32-32s-32 14.327-32 32v0 278.624c0 0.001 0 0.001 0 0.002 0 9.712 4.327 18.414 11.158 24.282l389.034 333.092c5.557 4.775 12.839 7.682 20.8 7.682 17.674 0 32.002-14.328 32.002-32.002 0-9.713-4.327-18.415-11.159-24.284l-0.043-0.036-377.792-323.424z" />
<glyph unicode="&#xe913;" glyph-name="iconfont-phone" d="M233.778 830.382c4.719-4.22 11.714-11.174 21.099-22.284 13.874-16.423 29.387-37.656 44.861-61.405 30.009-46.055 48.741-84.212 54.135-98.747-1.27-5.075-4.854-11.448-11.496-22.598-12.505-20.992-29.63-49.741-29.63-90.518 0-25.987 12.096-54.066 39.219-91.043 17.721-24.158 41.286-51.342 68.149-78.612 26.119-26.515 53.359-50.935 76.702-68.762 36.802-28.105 63.451-40.097 89.108-40.097 36.072 0 64.861 15.349 87.993 27.682 12.694 6.768 24.768 13.205 33.596 14.651 12.498-4.425 48.54-22.768 102.228-61.148 45.318-32.397 73.236-57.52 85.817-70.75-4.181-22.79-17.587-46.155-38.186-65.94-12.037-11.562-25.795-21.099-39.787-27.582-12.117-5.614-24.097-8.706-33.731-8.706-55.427 0-124.538 23.315-199.861 67.426-73.589 43.095-149.913 104.029-220.721 176.215-69.597 70.951-128.733 147.415-171.016 221.124-21.044 36.685-37.238 71.619-48.132 103.833-10.554 31.207-15.906 59.109-15.906 82.931 0 7.975 3.646 18.727 10.266 30.276 7.857 13.708 19.619 28.202 34.012 41.913 13.543 12.901 29.149 24.766 43.943 33.408 7.088 4.14 12.924 6.922 17.338 8.733zM241.316 897.256c-52.088 0-177.097-94.596-177.097-181.205 0-253.175 435.762-715.528 719.636-715.528 78.135 0 177.102 83.939 177.102 181.222 0 33.301-203.143 181.205-250.023 181.205-48.18 0-83.343-42.634-125.009-42.634-41.671 0-209.179 167.886-209.179 214.513 0 46.645 41.666 69.288 41.666 117.256 0.001 34.648-125.013 245.171-177.096 245.171v0z" />
<glyph unicode="&#xe914;" glyph-name="person2" d="M936.723 48.634c0-11.308-9.169-20.466-20.466-20.466h-778.245c-5.638 0-11.031 2.323-14.899 6.437-3.868 4.103-5.864 9.629-5.526 15.257 3.346 55.688 25.521 99.322 67.804 133.378 35.345 28.479 79.941 46.018 119.287 61.49 48.116 18.921 89.836 35.325 102.372 64.12 1.965 23.301 1.811 41.383 1.627 62.186-0.031 3.121-0.051 6.283-0.072 9.527-18.839 18.798-38.19 58.748-45.199 94.216-6.703 3.428-12.853 8.575-18.051 15.206-10.192 13.006-16.823 31.733-19.699 55.668-2.732 22.758 4.083 40.165 13.323 51.452-25.051 103.947-17.693 183.039 21.909 235.227 33.421 44.033 88.577 67.057 163.954 68.439 0.123 0.010 0.246 0.010 0.379 0.010 49.415 0 86.449-13.323 105.789-37.75 35.058-6.938 61.716-24.774 79.316-53.11 18.993-30.566 26.514-72.358 22.349-124.209-2.968-37.044-11.103-69.789-16.833-89.273 8.964-11.297 15.452-28.468 12.771-50.787-2.875-23.935-9.496-42.662-19.699-55.668-5.188-6.611-11.318-11.748-18-15.186-4.554-23.894-13.61-44.933-19.156-56.333-6.099-12.546-14.807-27.793-25.010-37.975-0.020-3.295-0.051-6.508-0.082-9.67-0.184-20.742-0.338-38.763 1.617-61.971 12.525-28.796 54.082-45.199 101.993-64.12 49.896-19.699 106.444-42.027 144.245-85.988 7.368-8.575 6.396-21.489-2.169-28.867-8.575-7.368-21.5-6.396-28.867 2.18-31.201 36.297-80.534 55.77-128.241 74.599-55.883 22.062-108.655 42.897-126.276 90.266-0.634 1.699-1.034 3.479-1.197 5.29-2.405 26.678-2.221 47.226-2.036 68.971 0.061 6.13 0.113 12.464 0.113 19.085 0 7.491 4.093 14.367 10.653 17.959 7.562 5.464 31.569 45.455 35.724 84.32 1.044 9.773 8.893 17.427 18.686 18.225 2.62 0.215 13.201 7.593 17.069 39.766 1.985 16.526-6.058 22.339-6.14 22.4-8.146 4.953-11.758 14.858-8.749 23.915 15.718 47.287 33.923 140.838 2.466 191.481-12.556 20.21-31.968 31.886-59.342 35.693-6.293 0.87-11.819 4.625-14.961 10.141-9.148 16.056-37.494 25.654-75.847 25.685-62.104-1.177-106.485-18.757-131.914-52.26-16.833-22.196-26.197-52.24-27.803-89.304-1.525-35.018 3.817-76.318 15.871-122.746 2.272-8.729-1.443-17.918-9.138-22.615-0.051-0.031-8.115-5.864-6.13-22.39 3.868-32.173 14.449-39.551 17.069-39.766 9.803-0.798 17.642-8.453 18.686-18.225 4.124-38.671 28.929-78.784 36.767-84.3 6.58-3.582 10.694-10.479 10.694-17.979 0-6.549 0.051-12.812 0.102-18.87 0.184-21.817 0.368-42.426-2.057-69.186-0.153-1.811-0.563-3.592-1.197-5.29-17.621-47.389-70.608-68.224-126.696-90.286-38.405-15.104-78.119-30.72-108.593-55.269-27.558-22.206-43.767-48.709-50.019-82.264h755.21c11.297 0 20.466-9.169 20.466-20.466z" />
<glyph unicode="&#xe915;" glyph-name="-" d="M496 145.728l-249.152-131.008c-4.317-2.316-9.446-3.676-14.892-3.676-17.673 0-32 14.327-32 32 0 1.909 0.167 3.779 0.488 5.597l-0.028-0.193 47.584 277.44-201.6 196.48c-5.968 5.819-9.669 13.937-9.669 22.92 0 16.060 11.832 29.358 27.254 31.65l0.175 0.021 278.56 40.48 124.576 252.416c5.34 10.663 16.182 17.855 28.704 17.855s23.364-7.192 28.62-17.671l0.084-0.184 124.576-252.416 278.56-40.48c15.584-2.327 27.401-15.617 27.401-31.668 0-8.985-3.703-17.105-9.666-22.918l-0.007-0.007-201.568-196.48 47.584-277.44c0.29-1.619 0.456-3.483 0.456-5.386 0-17.673-14.327-32-32-32-5.432 0-10.548 1.353-15.029 3.742l0.172-0.084-249.184 131.008z" />
<glyph unicode="&#xe916;" glyph-name="14" d="M350.912 354.624l-299.968 182.72 908.48 355.648-159.072-818.272-387.040 247.872 345.952 373.472zM416 256v-209.92l128.256 130.208z" />
<glyph unicode="&#xe917;" glyph-name="_o" d="M512 183.467l-238.933-85.333 8.533 251.733-153.6 204.8 243.2 72.533 140.8 204.8 140.8-209.067 243.2-68.267-153.6-200.533 8.533-251.733-238.933 81.067zM512 234.667l187.733-68.267-4.267 200.533 123.733 157.867-192 55.467-115.2 170.667-110.933-166.4-192-55.467 123.733-157.867-4.267-200.533 183.467 64z" />
<glyph unicode="&#xe918;" glyph-name="15" d="M1008.274 366.272c-3.372 32.724-20.828 54.611-25.3 59.737l-102.732 141.299-38.241 83.381c-0.105 0.229-0.215 0.456-0.33 0.683-24.105 47.319-51.162 50.235-59.123 49.969h-43.089c-10.173 0-18.42-8.247-18.42-18.42s8.247-18.42 18.42-18.42h43.514c0.028 0 0.055 0 0.083 0 1.622-0.398 12.521-3.956 25.623-29.524l38.844-84.696c0.509-1.109 1.127-2.165 1.845-3.153l104.348-143.521c0.476-0.654 0.994-1.276 1.55-1.861 0.137-0.143 13.548-14.832 16.266-38.361v-174.71h-123.425c-5.030 0-9.84-2.057-13.316-5.693s-5.312-8.535-5.085-13.559c0.051-1.131 0.171-2.085 0.261-2.739-0.384-23.546-19.655-42.584-43.288-42.584s-42.906 19.036-43.292 42.578c0.089 0.644 0.208 1.581 0.262 2.688 0.243 5.034-1.587 9.948-5.063 13.596s-8.295 5.713-13.335 5.713h-32.88v548.998c0 0.761-0.047 1.523-0.142 2.279l-0.491 3.944c-1.149 9.22-8.986 16.141-18.277 16.141h-632.731c-16.038 0-29.086-13.048-29.086-29.086v-550.028c0-16.038 13.048-29.086 29.086-29.086h141.023c7.264-36.764 39.755-64.575 78.617-64.575s71.351 27.811 78.615 64.575h195.798c0.326 0 0.599 0.006 0.925 0.023 0.395 0.024 39.746 1.62 63.481-19.268 7.636-6.719 19.276-5.98 25.996 1.659 6.72 7.637 5.978 19.275-1.659 25.996-33.589 29.561-82.888 28.669-89.137 28.428h-212.592c-5.029 0-9.837-2.056-13.312-5.69s-5.313-8.531-5.089-13.554c0.051-1.135 0.171-2.094 0.261-2.749-0.384-23.546-19.655-42.584-43.287-42.584s-42.902 19.035-43.288 42.577c0.089 0.642 0.208 1.576 0.261 2.679 0.247 5.036-1.582 9.952-5.059 13.602s-8.297 5.717-13.339 5.717h-150.463v534.525h607.051v-553.213c0-5.048 2.071-9.874 5.731-13.351s8.609-5.309 13.624-5.045l4.839 0.246h28.333c7.265-36.764 39.757-64.575 78.621-64.575 38.862 0 71.352 27.811 78.617 64.575h113.984c16.040 0 29.091 13.048 29.091 29.086v183.463c-0.002 0.63-0.034 1.26-0.098 1.888zM803.815 537.723c2.549 0 5.139 0.532 7.611 1.656 9.261 4.21 13.355 15.13 9.146 24.391l-26.206 57.65c-4.211 9.261-15.131 13.357-24.392 9.146s-13.355-15.13-9.146-24.391l26.206-57.65c3.087-6.79 9.779-10.802 16.78-10.802z" />
<glyph unicode="&#xe919;" glyph-name="_o1" d="M691.2 789.333c119.467 0 204.8-81.067 204.8-200.533 0-68.267-34.133-136.533-93.867-217.6-34.133-46.933-76.8-93.867-136.533-149.333l-132.267-132.267-29.867 29.867c-12.8 12.8-85.333 81.067-102.4 102.4-59.733 55.467-102.4 102.4-136.533 149.333-59.733 76.8-93.867 149.333-93.867 217.6 0 119.467 85.333 200.533 204.8 200.533 64 0 123.733-29.867 162.133-76.8 34.133 46.933 93.867 76.8 153.6 76.8zM853.333 588.8c0 98.133-72.533 157.867-162.133 157.867-51.2 0-98.133-25.6-128-64l-29.867-42.667-29.867 42.667c-34.133 38.4-81.067 64-128 64-89.6 0-162.133-59.733-162.133-157.867 0-140.8 192-311.467 320-439.467 128 128 320 298.667 320 439.467z" />
<glyph unicode="&#xe91a;" glyph-name="16" d="M651.74 480.363c-11.138 4.688-23.962-0.581-28.65-11.681-0.375-0.863-36.844-84.975-111.094-84.975-73.444 0-103.969 80.512-105.262 83.981-4.106 11.344-16.688 17.194-27.975 13.087-11.381-4.106-17.25-16.65-13.163-27.994 1.669-4.613 41.963-112.838 146.381-112.838 103.631 0 149.55 107.269 151.463 111.844 4.65 11.156-0.6 23.906-11.7 28.575zM630.009 181.060c153.506 49.913 264.862 194.138 264.862 364.069 0 211.103-171.769 382.871-382.871 382.871s-382.875-171.769-382.875-382.875c0-170.306 111.806-314.869 265.856-364.444-116.363-55.725-142.125-185.194-142.425-186.844-2.194-11.85 5.663-23.231 17.531-25.425 11.869-2.288 23.25 5.625 25.5 17.494 1.369 7.2 35.25 176.344 216.431 176.344 182.644 0 231.244-170.794 233.194-178.013 2.606-9.788 11.456-16.237 21.131-16.237 1.875 0 3.788 0.244 5.681 0.769 11.663 3.131 18.6 15.112 15.469 26.775-0.472 1.654-36.904 130.316-157.485 185.516zM182.469 545.125c0 181.706 147.825 329.512 329.531 329.512s329.531-147.806 329.531-329.512-147.825-329.531-329.531-329.531-329.531 147.825-329.531 329.531z" />
<glyph unicode="&#xe91b;" glyph-name="9" d="M168.446 378.090c-65.329 0.301-104.507 14.122-104.507 87.467 0 48.027 29.622 69.892 55.518 88.996 3.905 2.877 7.616 5.615 7.938 5.906 2.581 2.357 8.208 7.871 13.667 13.209 11.269 11.025 21.763 21.289 37.438 32.951l69.598 61.466 11.77 11.304 11.594 11.086 1.414 1.416 125.369 111.458c12.977 10.869 24.017 20.795 33.077 28.938 25.264 22.711 39.911 35.896 65.227 41.552l7.386 1.651h19.628l7.362-1.651c26.846-6.020 42.595-21.222 71.646-49.29l7.736-7.46c6.068-5.839 8.924-7.991 15.448-12.913l3.913-2.957 3.774-3.305 145.227-129.854 0.13 0.145c5.085-4.466 10.991-10.289 17.182-16.37 2.415-2.388 4.903-4.8 7.415-7.188l0.224-0.211c2.335-2.225 5.564-5.422 8.696-8.523 3.726-3.688 7.289-7.212 11.723-10.923 4.621-3.868 5.906-4.806 7.143-5.707 6.565-4.8 12.658-9.244 20.874-17.096 4.442-4.242 9.738-9.52 15.059-14.828 9.273-9.255 18.768-18.733 27.496-25.668 3.344-2.648 4.954-3.819 6.614-5.011 26.008-18.692 57.718-41.486 57.718-91.123 0-73.167-39.187-86.947-104.503-87.24v-236.494c0-16.221-3.254-31.051-8.525-44.36-5.735-14.528-14.058-27.13-23.030-37.616-8.151-9.518-21.436-20.752-36.070-28.513-13.928-7.371-30.108-12.496-47.013-12.496h-195.92v327.411h-61.009v-327.411h-161.088c-43.821 0-82.043 21.322-109.385 52.724-27.149 31.173-43.954 73.744-43.954 114.411v192.117zM124.391 465.557c0-35.712 42.201-25.755 104.507-25.755v-253.829c0-50.576 41.1-106.683 92.888-106.683h100.637v301.654c0 17.174 9.026 25.756 27.096 25.756h123.846c18.735 0 30.97-11.642 30.97-29.44v-297.97h135.465c14.244 0 30.116 11.381 37.274 19.751 9.096 10.625 16.913 25.105 16.913 42.782v297.979c62.307 0 104.511-9.957 104.511 25.755 0 23.087-26.569 37.094-41.432 48.904-15.888 12.624-31.523 29.668-46.564 44.039-10.324 9.86-15.002 11.678-25.187 20.209-8.583 7.175-14.993 14.179-23.258 22.038-8.444 8.036-14.538 14.527-23.169 22.119l-145.594 130.181c-11.186 8.487-14.358 10.567-24.779 20.59-26.316 25.304-39.284 38.814-50.819 41.403h-8.164c-14.352-3.211-30.878-23.075-72.566-57.973l-123.946-110.279c-10.779-10.279-18.312-17.505-25.832-24.744l2.704 2.588-74.24-65.552c-19.61-14.393-30.299-27.155-47.641-43.016-14.574-13.335-43.62-26.962-43.62-50.507z" />
<glyph unicode="&#xe91c;" glyph-name="_2" d="M558.933 469.333l-174.933-174.933 59.733-59.733 234.667 234.667-234.667 234.667-59.733-59.733 174.933-174.933z" />
<glyph unicode="&#xe91d;" glyph-name="13" d="M512 913.722c165.859 0 300.804-134.945 300.804-300.804s-134.945-300.804-300.804-300.804-300.804 134.945-300.804 300.804 134.945 300.804 300.804 300.804zM512 960c-191.705 0-347.081-155.377-347.081-347.081s155.377-347.081 347.081-347.081 347.081 155.377 347.081 347.081-155.377 347.081-347.081 347.081zM899.297-58.105c-75.78 138.802-220.698 231.388-387.241 231.388-0.019 0-0.039 0-0.058 0h0.003c-0.012 0-0.027 0-0.042 0-166.546 0-311.468-92.584-386.105-229.092l-1.149-2.295c-5.669-10.505-54.029-4.581-51.877 0 79.904 165.501 246.438 277.653 439.168 277.653 192.72 0 359.248-112.141 437.891-274.729l1.265-2.9c2.198-4.628-46.185-10.574-51.854-0.023zM516.35 381.531c-52.756 0-104.402 18.233-145.358 51.345-5.268 4.268-8.607 10.736-8.607 17.984 0 5.534 1.947 10.613 5.192 14.59l-0.033-0.042c4.28 5.252 10.749 8.579 17.995 8.579 5.526 0 10.6-1.935 14.581-5.165l-0.043 0.034c31.231-25.56 71.567-41.050 115.521-41.050 0.264 0 0.528 0.001 0.792 0.002h-0.041c44.272 0.030 84.908 15.57 116.775 41.479l-0.341-0.269c3.98 3.328 9.152 5.349 14.796 5.349 12.779 0 23.139-10.36 23.139-23.139 0-7.333-3.411-13.869-8.733-18.108l-0.047-0.036c-39.421-32.062-90.23-51.5-145.577-51.553h-0.012z" />
<glyph unicode="&#xe91e;" glyph-name="12" d="M820.444-48.814h-229.652c-12.734 0-23.058 10.322-23.060 23.055v0 226.755c0 23.644-8.335 78.638-85.514 78.638-31.677-0.21-54.861-8.284-68.782-24.018-18.78-21.212-15.98-50.693-15.944-50.985 0.102-0.881 0.159-1.761 0.159-2.647v-227.743c-0.003-12.734-10.326-23.055-23.060-23.055h-197.944c-12.734 0-23.058 10.322-23.060 23.055v0 424.709h-126.833c-0.004 0-0.008 0-0.013 0-9.469 0-17.605 5.713-21.147 13.88l-0.058 0.149c-1.166 2.665-1.845 5.77-1.845 9.034 0 6.207 2.454 11.841 6.444 15.984l-0.007-0.007 480.456 499.676c4.151 4.31 9.952 7.007 16.382 7.071h0.012c5.652 0.599 12.155-2.376 16.532-6.753l490.051-490.051c4.173-4.173 6.754-9.937 6.754-16.305 0-12.735-10.324-23.058-23.058-23.058-6.367 0-12.132 2.581-16.305 6.754v0l-473.421 473.421-426.619-443.668h95.734c0.002 0 0.003 0 0.005 0 12.733 0 23.055-10.322 23.055-23.055 0-0.002 0-0.004 0-0.005v0-424.704h151.823v203.679c-0.696 8.991-2.253 51.753 27.372 85.207 22.973 25.953 57.677 39.265 103.158 39.572 97.316 0 131.794-67.215 131.794-124.764v-203.689h183.526v338.227c-0.66 7.741-6.446 54.021-70.979 53.816h-34.995c-0.102-0.002-0.223-0.003-0.344-0.003-12.739 0-23.066 10.327-23.066 23.066s10.327 23.066 23.066 23.066c0.121 0 0.241-0.001 0.362-0.003h34.854c87.496 0.66 115.159-64.266 117.187-98.575l0.046-362.655c0-12.74-10.326-23.068-23.065-23.071v0zM447.601 407.608c0-22.282-18.063-40.346-40.346-40.346v0c-0.002 0-0.003 0-0.005 0-22.279 0-40.34 18.061-40.34 40.34 0 0.002 0 0.004 0 0.005v0c0 22.282 18.063 40.346 40.346 40.346v0c0.002 0 0.003 0 0.005 0 22.279 0 40.34-18.061 40.34-40.34 0-0.002 0-0.004 0-0.005v0z" />
<glyph unicode="&#xe91f;" glyph-name="11" d="M823.2 576h-119.2v160c0 17.6-14.4 32-32 32h-576c-17.6 0-32-14.4-32-32v-448c0-17.6 14.4-32 32-32h32c0-70.4 57.6-128 128-128s128 57.6 128 128h256c0-70.4 57.6-128 128-128s128 57.6 128 128h32c17.6 0 32 14.4 32 32v90.4c0 3.2-0.8 6.4-2.4 8.8l-120.8 181.6c-3.2 4.8-8 7.2-13.6 7.2zM268.8 193.6c-44.8-8.8-84 30.4-75.2 75.2 4.8 24.8 24.8 45.6 50.4 50.4 44.8 8.8 84-30.4 75.2-75.2-5.6-25.6-25.6-45.6-50.4-50.4zM780.8 193.6c-44.8-8.8-84 30.4-75.2 75.2 4.8 24.8 24.8 45.6 50.4 50.4 44.8 8.8 84-30.4 75.2-75.2-5.6-25.6-25.6-45.6-50.4-50.4zM704 384v128h95.2c5.6 0 10.4-2.4 12.8-7.2l84-120.8h-192z" />
<glyph unicode="&#xe920;" glyph-name="10" d="M711.424 682.080c-0.513 1.617-1.077 2.983-1.739 4.291l0.075-0.163c-13.216 26.816-24.64 50.016-57.024 50.016h-276.544c-32.384 0-43.36-22.304-57.28-50.528-0.401-0.764-0.831-1.724-1.211-2.709l-0.069-0.203-42.432-113.984c-1.221-3.215-1.928-6.933-1.928-10.816 0-17.254 13.962-31.246 31.204-31.296h414.533c0.022 0 0.048 0 0.075 0 17.214 0 31.168 13.954 31.168 31.168 0 3.467-0.566 6.801-1.611 9.916l0.064-0.22-37.28 114.528zM349.44 589.152l26.208 70.368c3.36 6.752 5.728 11.296 7.424 14.272h262.848c1.568-2.752 3.776-6.912 6.848-13.12l23.264-71.488h-326.592zM431.488 443.84c0 17.249-13.983 31.232-31.232 31.232s-31.232-13.983-31.232-31.232v0-30.464c-0.020-0.422-0.032-0.917-0.032-1.414 0-17.267 13.997-31.264 31.264-31.264s31.264 13.997 31.264 31.264c0 0.497-0.012 0.992-0.035 1.484l0.003-0.070v30.464zM623.2 475.072c-17.249 0-31.232-13.983-31.232-31.232v0-30.464c-0.010-0.298-0.016-0.648-0.016-1 0-17.267 13.997-31.264 31.264-31.264s31.264 13.997 31.264 31.264c0 0.352-0.006 0.702-0.017 1.051l0.001-0.051v30.464c-0.036 17.246-14.016 31.214-31.262 31.232h-0.002zM593.632 354.816c-4.769 3.102-10.603 4.947-16.868 4.947-10.993 0-20.66-5.68-26.226-14.265l-0.074-0.122c-0.096-0.192-13.376-19.424-33.984-19.424-20 0-32.448 18.112-33.28 19.36-5.669 8.517-15.23 14.053-26.083 14.053-17.249 0-31.232-13.983-31.232-31.232 0-5.934 1.655-11.482 4.529-16.207l-0.078 0.138c11.232-18.048 41.984-48.608 86.144-48.608 43.968 0 75.136 30.304 86.56 48.224 3.106 4.768 4.954 10.603 4.954 16.87 0 10.978-5.67 20.632-14.241 26.193l-0.121 0.074zM880.192 553.12l-67.232 176.736c-1.069 3.136-2.172 5.737-3.434 8.244l0.17-0.372c-19.744 40.32-49.6 101.28-130.016 101.28h-336c-80.384 0-110.24-60.928-130.016-101.28-1.184-2.56-2.272-5.184-3.168-7.872l-67.232-176.736c-40-25.12-79.2-69.216-79.2-124.672v-256.064c0.055-64.032 51.939-115.927 115.961-116h0.007c52.955 0.080 97.602 35.563 111.542 84.043l0.202 0.821 439.392 2.016c13.419-50.352 58.583-86.85 112.281-86.912h0.007c64.022 0.091 115.895 51.975 115.968 115.993v256.071c-0.032 55.488-39.232 99.552-79.232 124.704zM896.928 172.384c0-29.504-24-53.504-53.504-53.504s-53.504 24-53.504 53.504v2.24c-0.036 17.234-13.998 31.196-31.228 31.232h-493.956c-17.253-0.018-31.232-14.009-31.232-31.264v0-2.72c-1.146-28.661-24.658-51.461-53.496-51.461-29.006 0-52.625 23.068-53.51 51.859l-0.002 0.081v256.064c0 30.848 28.64 60.384 57.024 75.936 6.493 3.591 11.47 9.251 14.104 16.076l0.072 0.212 71.36 187.584c0.229 0.487 0.499 1.153 0.742 1.832l0.058 0.184c20.128 41.088 34.464 66.272 73.888 66.272h336c39.424 0 53.792-25.184 74.080-66.784l0.544-1.472 71.36-187.584c2.724-7.027 7.696-12.682 14.017-16.207l0.159-0.081c28.416-15.552 57.024-45.088 57.024-75.936v-256.064z" />
<glyph unicode="&#xe921;" glyph-name="-1" d="M512 0c-247.424 0-448 200.576-448 448s200.576 448 448 448 448-200.576 448-448-200.576-448-448-448zM512 268.8c98.969 0 179.2 80.231 179.2 179.2s-80.231 179.2-179.2 179.2v0c-98.969 0-179.2-80.231-179.2-179.2s80.231-179.2 179.2-179.2v0z" />
<glyph unicode="&#xe922;" glyph-name="icon_1" d="M166.464 511.296l212.64-128.736c9.701-5.619 16.122-15.951 16.122-27.783 0-17.673-14.327-32-32-32-6.416 0-12.39 1.888-17.399 5.139l0.124-0.076-266.528 161.312c-9.321 5.704-15.446 15.83-15.446 27.385 0 13.235 8.035 24.593 19.493 29.463l0.209 0.079 832 347.456c3.636 1.557 7.866 2.462 12.308 2.462 17.673 0 32-14.327 32-32 0-2.116-0.205-4.183-0.597-6.184l0.033 0.202-145.76-768c-2.908-14.923-15.876-26.032-31.439-26.032-6.359 0-12.284 1.855-17.265 5.052l0.127-0.077-270.208 171.328c-9.003 5.765-14.884 15.716-14.884 27.040 0 17.675 14.329 32.004 32.004 32.004 6.351 0 12.27-1.85 17.248-5.041l-0.128 0.077 230.464-146.112 125.856 663.264-718.976-300.224zM416 327.904v-263.904c0-17.673-14.327-32-32-32s-32 14.327-32 32v0 278.624c0 0.001 0 0.001 0 0.002 0 9.712 4.327 18.414 11.158 24.282l389.034 333.092c5.557 4.775 12.839 7.682 20.8 7.682 17.674 0 32.002-14.328 32.002-32.002 0-9.713-4.327-18.415-11.159-24.284l-0.043-0.036-377.792-323.424z" />
<glyph unicode="&#xe923;" glyph-name="6" d="M548.992 456.256l336.448 336.416c5.79 5.79 9.371 13.789 9.371 22.624 0 17.67-14.325 31.995-31.995 31.995-8.835 0-16.834-3.581-22.624-9.371l-336.448-336.416-336.416 336.416c-5.79 5.79-13.789 9.371-22.624 9.371-17.67 0-31.995-14.325-31.995-31.995 0-8.835 3.581-16.834 9.371-22.624v0l336.416-336.416-336.416-336.416c-5.79-5.79-9.371-13.789-9.371-22.624 0-17.67 14.325-31.995 31.995-31.995 8.835 0 16.834 3.581 22.624 9.371l336.416 336.416 336.416-336.448c5.79-5.79 13.789-9.371 22.624-9.371 17.67 0 31.995 14.325 31.995 31.995 0 8.835-3.581 16.834-9.371 22.624v0l-336.416 336.448z" />
<glyph unicode="&#xe924;" glyph-name="uniE924" d="M573.056 208l308.8 404.608c9.826 12.771 15.747 28.99 15.747 46.592 0 42.415-34.385 76.8-76.8 76.8-0.024 0-0.047 0-0.071 0h-617.5c-0.001 0-0.002 0-0.003 0-42.415 0-76.8-34.385-76.8-76.8 0-17.602 5.922-33.821 15.881-46.773l-0.134 0.181 308.8-404.608c14.174-18.431 36.234-30.191 61.040-30.191s46.866 11.761 60.906 30.011l0.134 0.181z" />
<glyph unicode="&#xe925;" glyph-name="20" d="M168.446 378.090c-65.329 0.301-104.507 14.122-104.507 87.467 0 48.027 29.622 69.892 55.518 88.996 3.905 2.877 7.616 5.615 7.938 5.906 2.581 2.357 8.208 7.871 13.667 13.209 11.269 11.025 21.763 21.289 37.438 32.951l69.598 61.466 11.77 11.304 11.594 11.086 1.414 1.416 125.369 111.458c12.977 10.869 24.017 20.795 33.077 28.938 25.264 22.711 39.911 35.896 65.227 41.552l7.386 1.651h19.628l7.362-1.651c26.846-6.020 42.595-21.222 71.646-49.29l7.736-7.46c6.068-5.839 8.924-7.991 15.448-12.913l3.913-2.957 3.774-3.305 145.227-129.854 0.13 0.145c5.085-4.466 10.991-10.289 17.182-16.37 2.415-2.388 4.903-4.8 7.415-7.188l0.224-0.211c2.335-2.225 5.564-5.422 8.696-8.523 3.726-3.688 7.289-7.212 11.723-10.923 4.621-3.868 5.906-4.806 7.143-5.707 6.565-4.8 12.658-9.244 20.874-17.096 4.442-4.242 9.738-9.52 15.059-14.828 9.273-9.255 18.768-18.733 27.496-25.668 3.344-2.648 4.954-3.819 6.614-5.011 26.008-18.692 57.718-41.486 57.718-91.123 0-73.167-39.187-86.947-104.503-87.24v-236.494c0-16.221-3.254-31.051-8.525-44.36-5.735-14.528-14.058-27.13-23.030-37.616-8.151-9.518-21.436-20.752-36.070-28.513-13.928-7.371-30.108-12.496-47.013-12.496h-195.92v327.411h-61.009v-327.411h-161.088c-43.821 0-82.043 21.322-109.385 52.724-27.149 31.173-43.954 73.744-43.954 114.411v192.117zM124.391 465.557c0-35.712 42.201-25.755 104.507-25.755v-253.829c0-50.576 41.1-106.683 92.888-106.683h100.637v301.654c0 17.174 9.026 25.756 27.096 25.756h123.846c18.735 0 30.97-11.642 30.97-29.44v-297.97h135.465c14.244 0 30.116 11.381 37.274 19.751 9.096 10.625 16.913 25.105 16.913 42.782v297.979c62.307 0 104.511-9.957 104.511 25.755 0 23.087-26.569 37.094-41.432 48.904-15.888 12.624-31.523 29.668-46.564 44.039-10.324 9.86-15.002 11.678-25.187 20.209-8.583 7.175-14.993 14.179-23.258 22.038-8.444 8.036-14.538 14.527-23.169 22.119l-145.594 130.181c-11.186 8.487-14.358 10.567-24.779 20.59-26.316 25.304-39.284 38.814-50.819 41.403h-8.164c-14.352-3.211-30.878-23.075-72.566-57.973l-123.946-110.279c-10.779-10.279-18.312-17.505-25.832-24.744l2.704 2.588-74.24-65.552c-19.61-14.393-30.299-27.155-47.641-43.016-14.574-13.335-43.62-26.962-43.62-50.507z" />
<glyph unicode="&#xe926;" glyph-name="21" d="M686.4 736c-6.4 6.4-6.4 16 0 22.4l68 68c6.4 6.4 16 6.4 22.4 0l112.8-112.8c6.4-6.4 6.4-16 0-22.4l-68-68c-6.4-6.4-16-6.4-22.4 0l-112.8 112.8zM384 184l372 372c5.6 5.6 4.8 15.2-1.6 20.8l-112.8 113.6c-6.4 6.4-16 7.2-20.8 1.6l-372.8-372-56-192 192 56zM64 64v-64h896v64h-896z" />
</font>
</defs>
</svg>
